<?xml version="1.0" encoding="utf-8"?>
<!-- Generator: Adobe Illustrator 24.3.0, SVG Export Plug-In . SVG Version: 6.00 Build 0)  -->
<svg version="1.1" id="Layer_1" xmlns="http://www.w3.org/2000/svg" xmlns:xlink="http://www.w3.org/1999/xlink" x="0px" y="0px"
	 viewBox="0 0 24 24" style="enable-background:new 0 0 24 24;" xml:space="preserve">
<style type="text/css">
	.st0{fill-rule:evenodd;clip-rule:evenodd;fill:#FFFFFF;}
</style>
<path class="st0" d="M24,23H4c-2.2,0-4-1.8-4-4V3.3C0.3,2.2,1.3,1,3,1c1.9,0,2.8,1.3,3,2.3L6,5h18V23z M22,7H6v11c0,0-0.6-1-1.9-1
	C3,17,2,17.9,2,19s0.9,2,2,2h18V7z M20,19H8V9h12V19z M12,10H9v8h10v-8h-6v3h6v1h-2v3h-1v-3h-3v3h-1V10z"/>
</svg>
