<?xml version="1.0" encoding="utf-8"?>
<!-- Generator: Adobe Illustrator 24.2.1, SVG Export Plug-In . SVG Version: 6.00 Build 0)  -->
<svg version="1.0" id="Layer_1" xmlns="http://www.w3.org/2000/svg" xmlns:xlink="http://www.w3.org/1999/xlink" x="0px" y="0px"
	 viewBox="0 0 30.6 30.6" enable-background="new 0 0 30.6 30.6" xml:space="preserve">
<path id="Icon_awesome-facebook-square" fill="#FCFCFC" d="M27.3,0H3.3C1.5,0,0,1.5,0,3.3c0,0,0,0,0,0v24.1c0,1.8,1.5,3.3,3.3,3.3
	l0,0h9.4V20.2H8.4v-4.9h4.3v-3.7c0-4.2,2.5-6.6,6.4-6.6c1.3,0,2.5,0.1,3.8,0.3v4.2h-2.1c-1.3-0.2-2.6,0.8-2.8,2.1c0,0.2,0,0.4,0,0.5
	v3.2h4.7l-0.8,4.9h-4v10.4h9.4c1.8,0,3.3-1.5,3.3-3.3l0,0V3.3C30.6,1.5,29.2,0,27.3,0L27.3,0L27.3,0z"/>
</svg>
