<svg xmlns="http://www.w3.org/2000/svg" width="71.001" height="71" viewBox="0 0 71.001 71">
  <g id="Group_462" data-name="Group 462" transform="translate(-14.5)" opacity="0.905" style="isolation: isolate">
    <path id="Subtraction_1" data-name="Subtraction 1" d="M-351.5,4869a35.279,35.279,0,0,1-13.818-2.79A35.381,35.381,0,0,1-376.6,4858.6a35.381,35.381,0,0,1-7.608-11.284A35.278,35.278,0,0,1-387,4833.5a35.278,35.278,0,0,1,2.79-13.818A35.373,35.373,0,0,1-376.6,4808.4a35.381,35.381,0,0,1,11.284-7.608A35.278,35.278,0,0,1-351.5,4798a35.278,35.278,0,0,1,13.818,2.79A35.381,35.381,0,0,1-326.4,4808.4a35.373,35.373,0,0,1,7.608,11.284A35.278,35.278,0,0,1-316,4833.5a35.278,35.278,0,0,1-2.79,13.818A35.381,35.381,0,0,1-326.4,4858.6a35.381,35.381,0,0,1-11.284,7.608A35.279,35.279,0,0,1-351.5,4869Zm-10.651-57.161h0c-9.2,3.572-14.7,11.972-14.7,22.469a24.372,24.372,0,0,0,6.974,17.4,23.567,23.567,0,0,0,7.88,5.206,26.648,26.648,0,0,0,10.065,1.9,26.571,26.571,0,0,0,10.055-1.9,23.44,23.44,0,0,0,7.856-5.206,24.421,24.421,0,0,0,6.938-17.4,24.743,24.743,0,0,0-1.709-9.164,23.091,23.091,0,0,0-4.669-7.347,24.228,24.228,0,0,0-15.462-7.428h-4.9v26.249h5.18v-19.46a17.806,17.806,0,0,1,11.533,5.347,16.983,16.983,0,0,1,4.288,11.8,18.965,18.965,0,0,1-1.342,7.152,16.5,16.5,0,0,1-3.829,5.7,17.412,17.412,0,0,1-6.021,3.772,22.372,22.372,0,0,1-7.918,1.364,22.57,22.57,0,0,1-7.958-1.364,17.46,17.46,0,0,1-6.042-3.772,16.475,16.475,0,0,1-3.837-5.7,18.943,18.943,0,0,1-1.343-7.152,17.052,17.052,0,0,1,2.353-8.995,15.024,15.024,0,0,1,6.606-5.845v-7.63Z" transform="translate(401.5 -4798)" fill="#fff"/>
  </g>
</svg>
