<?xml version="1.0" encoding="utf-8"?>
<!-- Generator: Adobe Illustrator 24.3.0, SVG Export Plug-In . SVG Version: 6.00 Build 0)  -->
<svg version="1.1" id="Layer_1" xmlns="http://www.w3.org/2000/svg" xmlns:xlink="http://www.w3.org/1999/xlink" x="0px" y="0px"
	 viewBox="0 0 30 30" style="enable-background:new 0 0 30 30;" xml:space="preserve">
<style type="text/css">
	.st0{fill:#FFFFFF;}
</style>
<path class="st0" d="M8.8,19.5H25v1.2H8.8V19.5z M25,15.8H8.8V17H25V15.8z M25,8.2h-6.2v1.2H25V8.2z M25,12h-6.2v1.2H25V12z M3.8,2
	v21.5c0,1-1.2,1-1.2,0v-19H0v20C0,25.9,1.1,27,2.5,27h24.9c1.4,0,2.5-1.1,2.5-2.5V2H3.8z M27.5,23.2H6.2V4.5h21.2V23.2z M16.2,8.2
	H8.8v5h7.5V8.2z"/>
</svg>
