<?xml version="1.0" encoding="UTF-8"?>
<svg id="Layer_1" xmlns="http://www.w3.org/2000/svg" version="1.1" viewBox="0 0 71 71">
  <!-- Generator: Adobe Illustrator 29.5.0, SVG Export Plug-In . SVG Version: 2.1.0 Build 137)  -->
  <defs>
    <style>
      .st0 {
        fill: #fff;
      }
    </style>
  </defs>
  <g>
    <path class="st0" d="M34.9,27c2.3,0,4.1-1,5.5-3.1,1.4-2.1,2.1-5,2.1-8.9s-.6-6.1-1.9-8.5-3.2-3.6-5.8-3.6-4.9,1.1-6.1,3.4c-1.2,2.3-1.8,5-1.8,8.1s.5,6.1,1.6,8.7c1.1,2.6,3.2,4,6.2,4Z"/>
    <path class="st0" d="M13.9,58.2c.9-1.5,2.3-2.3,4.2-2.3s2.8.3,3.7,1c-.7,1.3-1.1,2.8-1.1,4.3,0,2.5,1.2,4.7,3.7,6.6,2.5,1.9,6.2,2.8,11.3,2.8s9-.9,12-2.6,4.4-4,4.4-6.8-.6-3.5-1.9-4.5-3-1.6-5.4-1.9c-2.3-.3-6-.5-10.9-.5-6,0-10.7-.8-14.1-2.3-3.4-1.5-5.1-4.6-5.1-9.3s1.3-6.9,3.8-8.7c2.5-1.8,5.7-3.2,9.4-4.2-8.7-2-13.1-6.8-13.1-14.5s.6-5.1,1.7-7.7c.3-.6.6-1.2,1-1.8-2.6,1.5-4.9,3.3-7.1,5.5-3.3,3.2-5.8,7-7.6,11.3C1,26.8,0,31.5,0,36.3c0,4.8.9,9.4,2.8,13.8,1.8,4.2,4.3,8,7.6,11.3.7.7,1.4,1.3,2.1,1.9,0-1.8.5-3.5,1.4-5Z"/>
  </g>
  <path class="st0" d="M68.2,22.5c-1.8-4.2-4.3-8-7.6-11.3-2.3-2.3-4.8-4.2-7.6-5.7.5-.4,1-.6,1.7-.7.4,0,.8,0,1.2,0,.3,0,.7.2,1.1.5.5.2.7.3.8.3,0,0,0,0,0,0,1,.5,1.8.6,2.6.5.5-.1,1-.4,1.3-1,.4-.6.5-1.4.3-2.2-.2-.8-.8-1.9-1.9-2.3-1.4-.6-2.2-.6-3.6-.3-2.5.5-3.8,2.4-5,4.8s0,.4,0,.6c1,1.5,1.8,3,2.4,4.4.6,1.5.9,3.4.9,5.7s-.6,5.7-1.8,7.8c-1.2,2.1-2.8,3.6-4.7,4.8-1.9,1.1-3.9,1.9-5.9,2.4-2,.5-4.6,1-7.7,1.5-7.7,1.1-11.5,3-11.5,5.5s.6,1.9,1.7,2.3c1.2.4,2.9.6,5.2.6h7.4c2.4,0,4.7.1,6.8.4,2.2.3,4.4,1,6.7,2,2.3,1,4.2,2.7,5.8,5,1.6,2.3,2.4,5.3,2.4,9.1s-.4,4.3-1.3,6.5c.9-.7,1.7-1.5,2.6-2.3,3.3-3.2,5.8-7,7.6-11.3,1.9-4.4,2.8-9,2.8-13.8,0-4.8-.9-9.4-2.8-13.8Z"/>
</svg>